# xmcd
#
# Track frame offsets:
#       150
#       12262
#       32084
#       48551
#       73792
#       86051
#       104497
#       117514
#       138560
#       155827
#       167747
#       182910
#       193696
#       228372
#
# Disc length: 4023 seconds
#
# Revision: 0
# Processed by: cddbd v1.4PL0 Copyright (c) Steve Scherf et al.
# Submitted via: WhereIsIt 3.52
#
DISCID=cb0fb50e
DTITLE=Van Morrison - Meets Bob Dylan and John Lee Hooker
DYEAR=197
DGENRE=
TTITLE0=Crazy Love
TTITLE1=Baby Please Don't Go
TTITLE2=Wednesday Evening Blues
TTITLE3=Vanllose Stairway
TTITLE4=I'll Be There
TTITLE5=Foreign Window
TTITLE6=One Irish Rover
TTITLE7=Raglan Road
TTITLE8=Don't Look Back
TTITLE9=Enlightement
TTITLE10=So Complicated
TTITLE11=The Fayre Pf County Down
TTITLE12=Just Like A Woman
TTITLE13=Caledonia Soul Music
EXTD=
EXTT0=
EXTT1=
EXTT2=
EXTT3=
EXTT4=
EXTT5=
EXTT6=
EXTT7=
EXTT8=
EXTT9=
EXTT10=
EXTT11=
EXTT12=
EXTT13=
PLAYORDER=
